<svg height="88" viewBox="0 0 88 88" width="88" xmlns="http://www.w3.org/2000/svg" xmlns:xlink="http://www.w3.org/1999/xlink"><mask id="a" fill="#fff"><path d="m.00019556 0h87.99980444v87.9998044h-87.99980444z" fill="#fff" fill-rule="evenodd"/></mask><g fill="none" fill-rule="evenodd"><path d="m88.0001956 43.9998044c0 24.3007112-19.6992889 44-44 44-24.3007112 0-44.00000004-19.6992888-44.00000004-44 0-24.3007111 19.69928884-43.99999996 44.00000004-43.99999996 24.3007111 0 44 19.69928886 44 43.99999996" fill="#fc5158" mask="url(#a)"/><g fill="#fff"><path d="m27.0093458 41.272643-1.7068372 4.40986c-.5036891.6983771-1.6783079 1.6417987-2.9099852 1.6729005-.3354649.0301593-.5873094-.0612611-.7830792-.2742614-.6709297-.700262-.2518446-2.5852204.5036891-4.0140187.7830792-1.4297409 1.9862273-2.5852204 2.9090015-2.82838.4200688-.0914205 1.6232169-.3034783 1.987211 1.0338996zm6.9906542 5.2034274-.3275947-1.3345504-3.3290703 2.008423c-.2803739.182841-.9562224.2959385-1.2916872-.0989603-.5036891-.607899-.2518446-1.4599002-.0560748-1.9471619l2.6581407-6.872558h-3.4697491l-.4476144 1.1564219c-.4190851-.700262-.9227742-1.0650014-1.5386129-1.2468999-1.6232169-.4863192-3.6369896.3647395-4.8116084 1.3684798-2.2105263 1.9462194-3.3861289 4.2873376-3.3861289 6.8112968 0 1.1253201.6719134 3.3759603 2.6020659 3.5588013 1.6783079.1206373 3.5248402-.3345801 5.0359075-1.764321.784063 1.6729005 2.1544516 1.8849583 2.5745205 1.8849583 1.1746187 0 1.6360059-.4721821 2.6709296-1.0810236z"/><path d="m39.5760558 41.85045c.0827695.6443004-.470326 2.4493404-.7478475 3.3193957-.5813346 1.8699695-1.6339689 3.0297102-2.6028598 2.9657796-.4430607-.0319653-.8870951-.3226496-1.4684297-1.1277754l1.9387557-5.3182252c.2492824-.3556139 1.1354038-1.2895997 1.9105166-1.0958102.3875563.0968948.8870951.5154403.9698647 1.2566355zm7.4239442 4.9406353-.4450082-1.2666247s-3.0157339 2.017809-3.4071853 2.2245845c-.2220172.1288601-1.4401907.5484045-1.8550123-.2587191.028239-.0319653.028239-.0319653 0-.0319653.3593173-.5484045.6923432-1.1927049.9971299-1.9978307.9133867-2.4493404 1.0243953-4.3512752.5258303-5.4790506-.7196084-1.580284-2.0770295-1.8699695-3.2396986-1.9668643-1.3846864-.12886-2.4645859.6123351-3.3789463 1.5153546-.2210435-.7092299-1.0516605-1.2576344-2.1870644-1.2576344h-1.6067036l-.7751127 2.1276897h1.0798995c.7478475 0 .8578824.5803698.6641042 1.1927049l-5.3722325 15.4072701h3.1851681l2.6028598-7.4469138c2.3818163 2.1276896 4.6798893.7741594 5.5105063.3875791 1.3301558 1.0958101 2.6564166 1.0338774 4.2183272-.1498373z"/><path d="m54 46.5303814-.3670859-1.5514684-3.2997396 2.0179669c-.2571618.1548583-1.1466393.5578746-1.5762509-.248158-.3156535-.6521361.0282374-1.520689.1149665-1.7698089l1.1173935-2.8239994c1.2616058-3.1971982-.3721283-4.1590509-1.5772594-4.1590509h-2.4949742l-.774511 2.0179669h1.2051311c.2864077 0 .4588574.1548583.5738239.3414577 0 0 .113958.1856376-.0867291.744474l-1.4058182 3.8175932c-.3428824.8695148-.6020612 2.2036044-.2864077 3.0413781.3448995.9310734 1.2333684 1.7996263 2.2660498 1.9862257 1.1466393.2173787 2.3810162-.248158 3.1545187-.7136946zm-1.8596332-11.4825971c.2874162-1.1167109-.3438909-2.0477843-1.3755637-2.0477843-1.0326814 0-2.0946085.9310734-2.3527789 2.0477843-.2864077 1.1484521.3156536 2.0795255 1.3775808 2.0795255 1.0316728 0 2.0925915-.9310734 2.3507618-2.0795255z"/><path d="m63 46.9984515-.3684018-1.3383797c-3.0334978 2.066003-3.1711637 2.066003-3.1711637 2.066003-.9374856.5904318-2.3713442.917659-3.3359751.4918571-1.7644507-.7205096-1.9030861-2.8200484-1.5443791-4.197045.2200716-.85262 1.1856721-3.0822366 2.9229773-2.8861035 1.4891188.1646298 1.1847026 1.9349088.7445594 2.4277822l.6340389.556896c2.2598541-1.0497694 2.3160838-3.3454412 1.791596-4.3616748-.4963729-1.0162337-1.6810755-1.6391849-2.8396022-1.7377596-2.2879689-.1961331-5.155686 1.0172499-6.5071388 5.0171456-.5244878 1.5741459-.3858524 3.8037625.1929262 5.0171455.8550799 1.6727206 2.0688668 2.4592855 3.3912353 2.7550094 1.3795678.3272273 2.4188486.2357663 3.6103375-.2936915 1.0470367-.4918571 1.9147198-.757094 4.4789901-3.5171847"/><path d="m76 46.6633302-.4869368-1.4811849-3.2952016 1.8765533c-.8072899.4349052-1.1306001.2410782-1.4391248-.1012529-.4208948-.4975856-.0847704-1.524579 0-1.7743361l.7846187-2.1147386c1.4302536-3.8273587-.2523397-5.5390144-2.3548419-5.38376-1.0093588-.061716-2.0463173.4985499-2.0463173.4985499l3.0556761-8.1831609h-3.4194001l-5.466703 14.7173464c-.3932951 1.0578514-.6170494 3.049158.3923094 4.1378675.7284337.8100229 1.5140382 1.2140701 2.2986569 1.1205318l1.1207431-2.8620813c-.2799393.030858-.532279-.1253607-.7008341-.3114731-.363724-.4667276-.0837846-.8717391-.0275996-1.1822479l1.7377925-4.6364173c1.4578532-1.3384666 2.2148723-.8090587 2.4386267-.4050115.2523396.4985499.0847703.9334551-.0275997 1.2140702l-1.1207431 3.0809803c-.7018198 1.8968039.0837846 3.2969865.1675693 3.4840632.4484944.9961354 1.5140382 1.493721 2.298657 1.6181174.8408037.1243964 1.7101928-.2487928 2.4386266-.683698.7511049-.4725134 3.6520257-2.6287175 3.6520257-2.6287175"/><path d="m79.6061556 41.7903978c.0831977.9802579-1.058079 1.5686151-1.3634634 1.7964643l-1.8097946 1.3731711c-.5011438-1.4055763.1389891-2.8111526.807507-3.3984972 1.5308376-1.307348 2.3099596-.4253185 2.365751.2288618m5.3931683 5.1939489c.0225123.0344305-.5246349-1.4744374-.5246349-1.4744374-1.6766783 1.3579811-3.4267663 2.6035567-3.4267663 2.6035567-.7801007.5215215-1.6913602.6369651-2.6936478.3098749-.6411116-.2288619-1.086464-.7838012-1.2538382-1.1757018l3.7859846-2.7129244c1.5876078-1.1432966 2.3109384-3.266851 1.4476399-4.8678713-.6401329-1.2091197-1.697233-1.6668434-3.0058838-1.6668434-2.7004993 0-5.3726136 1.9605157-6.1517355 5.1625563-.389561 1.6334255-.1115828 3.5939412.6127265 4.9012892 1.1128916 2.0921619 3.5755434 3.2911549 5.7895809 2.8425452 2.6584111-.5397494 4.6042584-3.0197612 5.4205746-3.922044"/><path d="m21.779189 32.4765549c-.4083269-1.4804039-2.0942293-3.4765549-5.3034683-3.4765549-4.0249366 0-8.0498731 1.963231-10.93302437 7.1137196-1.08727795 1.9313086-1.8216926 5.5684733-1.44109751 8.2080613.19029755 1.4155614.9247122 3.2181826 1.60461952 4.0880695 1.57688771 2.0270759 3.39953657 2.4789781 4.59678546 2.5747455 4.3232925.2902948 7.8318438-3.6052423 8.7288241-4.699584l-.5163853-1.5771688s-2.2032439 2.0919184-4.5690536 3.1224152c-1.3320828.6115145-3.97042923.8688893-5.412483-1.0953393-1.30530729-1.7687035-1.27757549-5.3101009 0-8.0783763.87116113-1.9313085 2.7741366-4.4741316 5.7940343-5.3440185 1.4401413-.4179847 3.0992681-.0638449 3.6433852 1.4814014.6254 1.6739338-1.0872779 3.8626171-1.0872779 3.8626171l.8969804.9337318s5.3570194-2.2854483 3.998161-7.1137196"/></g></g></svg>