<?xml version="1.0" standalone="no"?>
<!DOCTYPE svg PUBLIC "-//W3C//DTD SVG 20010904//EN"
 "http://www.w3.org/TR/2001/REC-SVG-20010904/DTD/svg10.dtd">
<svg version="1.0" xmlns="http://www.w3.org/2000/svg"
 width="241.000000pt" height="232.000000pt" viewBox="0 0 241.000000 232.000000"
 preserveAspectRatio="xMidYMid meet">

<g transform="translate(0.000000,232.000000) scale(0.100000,-0.100000)"
fill="#f56c03" stroke="none">
<path d="M1329 2293 c-5 -10 -37 -76 -69 -148 -33 -71 -62 -130 -66 -130 -3 0
-35 63 -69 140 -51 112 -68 141 -86 143 -28 5 -65 -15 -84 -44 -14 -22 -12
-31 31 -139 l46 -115 -16 -47 -16 -47 47 -41 47 -42 -74 -22 c-74 -23 -137
-52 -196 -91 l-32 -21 5 64 6 64 -49 27 c-47 26 -51 31 -95 139 l-47 112 -49
3 c-39 2 -53 -1 -67 -17 -18 -20 -17 -24 39 -171 31 -83 55 -153 53 -155 -2
-3 -70 21 -152 51 -143 54 -148 55 -167 38 -16 -14 -19 -28 -17 -67 l3 -49
109 -46 c102 -43 111 -49 139 -95 l30 -50 59 7 c32 3 58 3 58 1 0 -3 -12 -24
-26 -47 -30 -47 -84 -188 -84 -218 0 -28 -9 -25 -55 20 l-41 41 -51 -12 c-49
-12 -55 -11 -158 31 -116 47 -137 46 -170 -4 -34 -52 -22 -65 133 -134 78 -36
142 -68 142 -71 0 -3 -65 -35 -145 -71 -87 -39 -147 -72 -151 -82 -7 -24 20
-71 50 -87 23 -13 35 -10 136 29 109 43 112 43 162 30 l51 -13 44 46 c24 26
45 41 47 34 26 -95 44 -144 77 -205 21 -41 39 -75 39 -78 0 -2 -27 -4 -60 -4
l-60 0 -21 -43 c-19 -39 -27 -45 -126 -86 -58 -25 -112 -51 -119 -59 -29 -28
-6 -122 29 -122 7 0 74 23 150 51 76 29 140 49 144 45 3 -3 -17 -69 -46 -146
-29 -77 -51 -148 -49 -158 5 -25 52 -44 92 -37 32 7 36 12 80 119 44 105 49
113 91 135 l45 24 0 63 c0 35 2 64 4 64 3 0 37 -18 78 -39 40 -22 100 -47 133
-56 33 -10 66 -19 74 -22 10 -2 -1 -19 -34 -53 -46 -46 -47 -50 -36 -81 17
-50 14 -69 -30 -174 -45 -107 -44 -128 5 -160 51 -33 64 -21 130 124 34 74 66
134 71 133 6 0 37 -62 70 -136 59 -134 60 -135 93 -136 33 0 82 38 82 64 0 6
-19 58 -42 115 -40 101 -41 104 -28 154 l13 50 -47 45 c-26 24 -45 46 -43 49
3 2 32 11 66 19 64 15 164 58 219 95 l33 22 -3 -69 -3 -69 44 -25 c41 -23 48
-33 91 -135 l47 -110 42 -3 c42 -3 81 17 81 41 0 6 -23 71 -50 145 -28 74 -49
137 -46 140 3 2 67 -18 143 -47 76 -28 143 -51 150 -51 34 0 58 95 31 121 -7
6 -58 30 -113 53 -91 39 -102 46 -125 87 l-25 44 -67 -3 c-38 -2 -68 1 -68 5
0 5 12 26 26 47 36 53 79 151 94 214 l12 54 48 -47 48 -47 50 13 c50 12 52 12
162 -33 l111 -46 35 33 c27 26 35 40 32 61 -3 25 -16 34 -143 91 -77 35 -143
67 -147 71 -4 4 58 37 137 72 140 63 151 71 145 110 -2 20 -50 70 -66 70 -7 0
-61 -19 -119 -42 -103 -41 -107 -41 -156 -29 l-51 13 -43 -42 -44 -43 -6 29
c-15 66 -29 103 -70 182 l-44 82 64 0 65 0 23 46 c22 43 28 48 133 91 60 26
112 51 116 57 4 6 8 28 8 49 0 43 -31 83 -58 72 -124 -49 -284 -106 -288 -102
-4 3 40 127 95 270 9 23 7 31 -10 48 -16 16 -30 19 -67 17 l-46 -3 -46 -110
c-43 -101 -50 -112 -91 -135 -44 -26 -44 -27 -47 -87 l-3 -61 -82 43 c-45 24
-113 51 -150 61 l-68 17 45 46 46 47 -15 45 -16 44 48 118 47 119 -37 34 c-41
38 -71 43 -88 17z m-201 -729 l-3 -75 -64 -26 -63 -25 -49 48 c-27 27 -49 52
-49 56 0 19 168 97 213 98 16 0 18 -8 15 -76z m285 34 c37 -17 71 -36 77 -43
6 -8 -7 -28 -45 -65 l-54 -54 -48 21 c-26 12 -56 24 -65 27 -15 4 -18 18 -18
82 l0 77 43 -7 c23 -4 72 -21 110 -38z m212 -187 c25 -40 65 -148 65 -176 0
-12 -15 -15 -78 -15 l-77 0 -24 61 -23 61 53 54 c29 30 55 54 56 54 2 0 14
-18 28 -39z m-762 -19 l47 -48 -27 -62 -28 -62 -73 0 -72 0 6 28 c21 87 71
192 93 192 4 0 28 -22 54 -48z m417 -104 c57 -39 75 -72 75 -138 0 -66 -18
-99 -75 -137 -46 -32 -124 -32 -171 0 -37 24 -79 97 -79 137 0 40 42 113 79
137 47 32 125 32 171 1z m-397 -270 l27 -62 -52 -53 -52 -53 -23 37 c-24 39
-55 117 -67 166 l-6 27 72 0 73 0 28 -62z m803 25 c-8 -41 -54 -146 -79 -178
-16 -19 -17 -19 -71 35 l-56 55 25 49 c14 27 25 55 25 63 0 10 20 13 81 13
l81 0 -6 -37z m-621 -207 l60 -25 3 -76 c3 -70 1 -76 -15 -71 -10 3 -31 8 -48
12 -38 9 -141 60 -150 75 -4 6 14 32 41 60 27 27 48 49 49 49 0 0 27 -11 60
-24z m377 -23 c26 -26 48 -52 48 -59 0 -23 -168 -94 -222 -94 -4 0 -8 34 -8
75 0 63 3 77 18 81 9 3 35 14 57 24 22 10 44 19 50 19 5 1 31 -20 57 -46z"/>
</g>
</svg>
