<?xml version="1.0" standalone="no"?>
<!DOCTYPE svg PUBLIC "-//W3C//DTD SVG 20010904//EN"
 "http://www.w3.org/TR/2001/REC-SVG-20010904/DTD/svg10.dtd">
<svg version="1.0" xmlns="http://www.w3.org/2000/svg"
 width="177.000000pt" height="177.000000pt" viewBox="0 0 177.000000 177.000000"
 preserveAspectRatio="xMidYMid meet">

<g transform="translate(0.000000,177.000000) scale(0.100000,-0.100000)"
fill="#000000" stroke="none">
<path fill="#173ed2" d="M500 1539 c-184 -126 -352 -248 -373 -272 -162 -180 -154 -462 19
-631 107 -105 260 -152 401 -122 193 40 303 155 303 315 0 66 -22 155 -42 167
-5 3 -55 -25 -111 -64 -56 -38 -120 -81 -141 -96 -49 -33 -125 -36 -173 -6
-38 22 -73 86 -73 130 0 72 28 100 247 251 115 78 223 155 241 173 74 70 108
195 79 294 -32 107 -1 118 -377 -139z"/>
<path fill="#173ed2" d="M1208 1244 c-118 -28 -214 -101 -255 -192 -36 -81 -30 -202 13 -276
10 -17 22 -11 152 77 79 53 157 99 176 102 46 9 116 -23 147 -66 30 -42 33
-130 6 -170 -10 -15 -114 -92 -231 -173 -222 -152 -265 -190 -299 -265 -29
-64 -28 -169 1 -235 14 -30 27 -46 35 -43 30 11 645 440 681 474 180 173 181
468 3 645 -116 116 -273 160 -429 122z"/>
</g>
</svg>
